IKResults
version=1
nRows=11
nColumns=63
inDegrees=yes

Units are S.I. units (second, meters, Newtons, ...)
If the header above contains a line with 'inDegrees', this indicates whether rotational values are in degrees (yes) or radians (no).

endheader
time	pelvis_tilt	pelvis_list	pelvis_rotation	pelvis_tx	pelvis_ty	pelvis_tz	hip_flexion_r	hip_adduction_r	hip_rotation_r	knee_angle_r	knee_angle_r_beta	ankle_angle_r	subtalar_angle_r	mtp_angle_r	hip_flexion_l	hip_adduction_l	hip_rotation_l	knee_angle_l	knee_angle_l_beta	ankle_angle_l	subtalar_angle_l	mtp_angle_l	L5_S1_Flex_Ext	L5_S1_Lat_Bending	L5_S1_axial_rotation	L4_L5_Flex_Ext	L4_L5_Lat_Bending	L4_L5_axial_rotation	L3_L4_Flex_Ext	L3_L4_Lat_Bending	L3_L4_axial_rotation	L2_L3_Flex_Ext	L2_L3_Lat_Bending	L2_L3_axial_rotation	L1_L2_Flex_Ext	L1_L2_Lat_Bending	L1_L2_axial_rotation	L1_T12_Flex_Ext	L1_T12_Lat_Bending	L1_T12_axial_rotation	Abs_r3	Abs_r2	Abs_r1	Abs_t1	Abs_t2	neck_flexion	neck_bending	neck_rotation	arm_flex_r	arm_add_r	arm_rot_r	elbow_flex_r	pro_sup_r	wrist_flex_r	wrist_dev_r	arm_flex_l	arm_add_l	arm_rot_l	elbow_flex_l	pro_sup_l	wrist_flex_l	wrist_dev_l
      0.03333333	     66.85391460	     -3.17551372	     -3.04316935	     -1.80872505	      0.66490935	     -0.35692879	     11.28586182	     -7.86504572	     14.06909023	     76.63483600	      1.33753021	     -0.91306544	    -19.58824844	      0.00000000	      9.96561464	    -22.90026923	      6.68125522	     76.80042715	      1.34042032	      0.11177420	    -17.24380644	      0.00000000	     -9.11080501	     -0.03118845	      0.12830811	    -16.91967598	     -0.04148064	      0.13632737	    -14.96814154	     -0.07583161	      0.13632737	    -10.41273904	     -0.07583161	      0.11226960	     -8.46029353	     -0.06359949	      0.10425034	     -5.20591398	     -0.04831091	      0.09623109	    -65.07756907	     -0.35281002	      0.71361124	      0.00000000	      0.00000000	      3.87845068	      0.38969006	     -2.12730734	      5.02174071	    -29.16749502	     -8.96564663	     90.07099864	     89.99559364	      0.00000000	      0.00000000	    -10.10713446	    -18.73591794	    -24.60055956	    101.99953055	     89.99559364	      0.00000000	      0.00000000
      0.06666667	     66.84062205	     -3.15924993	     -3.03946389	     -1.80881270	      0.66491191	     -0.35688583	     11.28764937	     -7.87544897	     14.06517118	     76.64309316	      1.33767432	     -0.90978960	    -19.59472051	      0.00000000	      9.98469862	    -22.89400866	      6.67385905	     76.78373917	      1.34012906	      0.08236094	    -17.21812298	      0.00000000	     -9.11404388	     -0.03035737	      0.13476649	    -16.92569090	     -0.04037531	      0.14318940	    -14.97346270	     -0.07381092	      0.14318940	    -10.41644075	     -0.07381092	      0.11792068	     -8.46330115	     -0.06190476	      0.10949778	     -5.20776468	     -0.04702357	      0.10107487	    -65.10070406	     -0.34340869	      0.74953081	      0.00000000	      0.00000000	      3.89260202	      0.39023750	     -2.13024576	      4.99461268	    -29.17155312	     -8.96946402	     90.07064389	     89.99559364	      0.00000000	      0.00000000	    -10.15486619	    -18.72940305	    -24.59759971	    102.01374490	     89.99559364	      0.00000000	      0.00000000
      0.10000000	     66.81084259	     -3.15886212	     -3.05594032	     -1.80875608	      0.66492744	     -0.35673012	     11.32092061	     -7.90197651	     14.00920754	     76.70108005	      1.33868639	     -0.92685974	    -19.62325191	      0.00000000	     10.01582010	    -22.94150258	      6.64521376	     76.74740072	      1.33949483	     -0.22012505	    -17.14562392	      0.00000000	     -9.11886863	     -0.02952301	      0.15722146	    -16.93465094	     -0.03926560	      0.16704780	    -14.98138927	     -0.07178225	      0.16704780	    -10.42195496	     -0.07178225	      0.13756878	     -8.46778141	     -0.06020332	      0.12774244	     -5.21052154	     -0.04573114	      0.11791610	    -65.13516675	     -0.33397019	      0.87441861	      0.00000000	      0.00000000	      4.12347805	      0.42063667	     -2.19581140	      4.76951677	    -29.21995740	     -9.08322882	     90.18917694	     89.99559364	      0.00000000	      0.00000000	    -10.29929861	    -18.74698708	    -24.57586176	    102.29184251	     89.99559364	      0.00000000	      0.00000000
      0.13333333	     66.89507816	     -3.12102744	     -3.19114853	     -1.80898289	      0.66476828	     -0.35639569	     11.29642289	     -7.92098542	     14.13415363	     76.79485610	      1.34032309	     -0.95463392	    -19.62050424	      0.00000000	      9.89515310	    -22.95072392	      6.46727699	     76.73872508	      1.33934342	     -0.57335487	    -17.25665073	      0.00000000	     -9.15863865	     -0.02889567	      0.27937042	    -17.00850783	     -0.03843125	      0.29683107	    -15.04672743	     -0.07025694	      0.29683107	    -10.46740811	     -0.07025694	      0.24444912	     -8.50471185	     -0.05892406	      0.22698846	     -5.23324612	     -0.04475940	      0.20952781	    -65.41924000	     -0.32687365	      1.55377445	      0.00000000	      0.00000000	      4.96158201	      0.69592326	     -3.30455474	      3.86380808	    -29.09138103	    -10.30093666	     90.96944669	     89.99559364	      0.00000000	      0.00000000	     -9.96176520	    -18.97386400	    -23.97565200	    102.56001610	     89.99559364	      0.00000000	      0.00000000
      0.16666667	     66.87492550	     -3.13256236	     -3.23586457	     -1.80884751	      0.66473171	     -0.35628148	     11.32886714	     -7.93343294	     14.11557163	     76.85227986	      1.34132532	     -1.02166469	    -19.62716054	      0.00000000	      9.94330908	    -22.99813703	      6.43231183	     76.78187958	      1.34009660	     -0.90471182	    -17.27720838	      0.00000000	     -9.17260110	     -0.01961128	      0.35626216	    -17.03443751	     -0.02608300	      0.37852854	    -15.06966635	     -0.04768286	      0.37852854	    -10.48336580	     -0.04768286	      0.31172939	     -8.51767738	     -0.03999132	      0.28946300	     -5.24122427	     -0.03037787	      0.26719662	    -65.51897242	     -0.22184671	      1.98142324	      0.00000000	      0.00000000	      5.52063472	      0.86075371	     -3.93204476	      3.24434885	    -29.04708362	    -10.98165087	     91.45715808	     89.99559364	      0.00000000	      0.00000000	     -9.81918437	    -19.03486211	    -23.58159254	    102.68140464	     89.99559364	      0.00000000	      0.00000000
      0.20000000	     66.85799108	     -3.05166846	     -3.17674828	     -1.80858188	      0.66466610	     -0.35634186	     11.35564233	     -8.06310094	     14.02188652	     76.94583484	      1.34295816	     -1.05213830	    -19.63109331	      0.00000000	     10.03585204	    -22.95246909	      6.42624986	     76.81154462	      1.34061436	     -1.17633717	    -17.33966403	      0.00000000	     -9.18417838	     -0.01534420	      0.38493253	    -17.05593768	     -0.02040779	      0.40899081	    -15.08868667	     -0.03730790	      0.40899081	    -10.49659747	     -0.03730790	      0.33681596	     -8.52842805	     -0.03128990	      0.31275768	     -5.24783953	     -0.02376817	      0.28869940	    -65.60166777	     -0.17357671	      2.14087924	      0.00000000	      0.00000000	      6.18062383	      1.03527920	     -4.20855706	      2.78126626	    -29.08609197	    -11.40373765	     91.79309223	     89.99559364	      0.00000000	      0.00000000	     -9.76183876	    -19.06951073	    -23.48899537	    102.92605289	     89.99559364	      0.00000000	      0.00000000
      0.23333333	     66.81237234	     -2.99928378	     -3.03875532	     -1.80818875	      0.66465379	     -0.35644401	     11.37827685	     -8.16380913	     13.85209898	     77.00188522	      1.34393643	     -1.12087960	    -19.63435578	      0.00000000	     10.22227480	    -22.87829785	      6.59288595	     76.89471327	      1.34206592	     -1.44152102	    -17.46648318	      0.00000000	     -9.18752963	      0.00041065	      0.43712487	    -17.06216127	      0.00054616	      0.46444518	    -15.09419243	      0.00099845	      0.46444518	    -10.50042761	      0.00099845	      0.38248426	     -8.53154001	      0.00083739	      0.35516396	     -5.24975443	      0.00063609	      0.32784365	    -65.62560538	      0.00464533	      2.43115740	      0.00000000	      0.00000000	      6.84467849	      1.34943872	     -4.84980883	      2.08748923	    -29.00946907	    -12.13806955	     92.20555514	     89.99559364	      0.00000000	      0.00000000	     -9.48888703	    -19.17866851	    -23.05467808	    102.93206429	     89.99559364	      0.00000000	      0.00000000
      0.26666667	     66.80357667	     -2.98089646	     -3.02488168	     -1.80777945	      0.66494067	     -0.35645605	     11.34912707	     -8.19350964	     13.83485061	     77.00978327	      1.34407427	     -1.13072627	    -19.63244975	      0.00000000	     10.22319128	    -22.87324081	      6.58418431	     76.90782503	      1.34229477	     -1.47252141	    -17.44985455	      0.00000000	     -9.18402809	      0.00285148	      0.44230770	    -17.05565856	      0.00379246	      0.46995194	    -15.08843975	      0.00693308	      0.46995194	    -10.49642570	      0.00693308	      0.38701924	     -8.52828848	      0.00581473	      0.35937501	     -5.24775365	      0.00441694	      0.33173078	    -65.60059424	      0.03225647	      2.45998276	      0.00000000	      0.00000000	      6.88719604	      1.35437209	     -4.86821252	      1.99417849	    -28.98730353	    -12.14123341	     92.18268801	     89.99559364	      0.00000000	      0.00000000	     -9.50043275	    -19.17298319	    -23.04268821	    102.91942739	     89.99559364	      0.00000000	      0.00000000
      0.30000000	     66.80361880	     -2.91752978	     -2.95480461	     -1.80723121	      0.66532585	     -0.35632268	     11.30342522	     -8.25046592	     13.78438744	     77.01626359	      1.34418738	     -1.16204015	    -19.64227050	      0.00000000	     10.26512216	    -22.85346478	      6.59211744	     76.93407293	      1.34275288	     -1.58044261	    -17.45451494	      0.00000000	     -9.17778521	      0.00251489	      0.45025869	    -17.04406491	      0.00334481	      0.47839986	    -15.07818332	      0.00611471	      0.47839986	    -10.48929071	      0.00611471	      0.39397635	     -8.52249134	      0.00512837	      0.36583519	     -5.24418647	      0.00389557	      0.33769402	    -65.55600195	      0.02844897	      2.50420375	      0.00000000	      0.00000000	      6.99013162	      1.38539036	     -4.91903572	      1.63775070	    -28.95833289	    -12.22329782	     92.16938184	     89.99559364	      0.00000000	      0.00000000	     -9.46287420	    -19.17706326	    -22.98391572	    102.88206693	     89.99559364	      0.00000000	      0.00000000
      0.33333333	     66.74913946	     -2.82216330	     -2.02393025	     -1.80709468	      0.66543023	     -0.35748448	     11.09870122	     -8.61046284	     12.72524894	     76.87104765	      1.34165288	     -1.03187483	    -19.63902864	      0.00000000	     10.95988687	    -22.46768064	      7.76046363	     77.12170883	      1.34602774	     -1.84270048	    -17.72978748	      0.00000000	     -9.17562566	      0.08418724	      0.49252883	    -17.04005441	      0.11196903	      0.52331188	    -15.07463539	      0.20469286	      0.52331188	    -10.48682257	      0.20469286	      0.43096273	     -8.52048599	      0.17167463	      0.40017967	     -5.24295250	      0.13040604	      0.36939662	    -65.54057652	      0.95234293	      2.73929760	      0.00000000	      0.00000000	      7.42338906	      1.64812657	     -6.71169662	      0.25115015	    -28.68032516	    -14.18692706	     92.88381899	     89.99559364	      0.00000000	      0.00000000	     -8.38032854	    -19.51324121	    -21.59344368	    102.32397967	     89.99559364	      0.00000000	      0.00000000
      0.36666667	     66.80913096	     -2.73693843	     -1.84704729	     -1.80688939	      0.66591655	     -0.35752384	     10.96853451	     -8.71402078	     12.57713065	     76.81843939	      1.34073469	     -0.85265115	    -19.63740526	      0.00000000	     10.97749095	    -22.36115189	      7.91121556	     77.11114305	      1.34584334	     -1.84630500	    -17.72612536	      0.00000000	     -9.17602316	      0.08959000	      0.48075096	    -17.04079260	      0.11915471	      0.51079789	    -15.07528844	      0.21782914	      0.51079789	    -10.48727686	      0.21782914	      0.42065709	     -8.52085510	      0.18269194	      0.39061015	     -5.24317963	      0.13877492	      0.36056322	    -65.54341580	      1.01346005	      2.67379260	      0.00000000	      0.00000000	      7.24607430	      1.71773413	     -6.73548616	      0.04670536	    -28.57452904	    -14.32457887	     92.78578011	     89.99559364	      0.00000000	      0.00000000	     -8.17071424	    -19.58283751	    -21.47319954	    102.09195001	     89.99559364	      0.00000000	      0.00000000
